# AST/ASF file generated using VICON BodyLanguage
# -----------------------------------------------
:version 1.10
:name VICON
:units
  mass 1.0
  length 0.45
  angle deg
:documentation
   .ast/.asf automatically generated from VICON data using
   VICON BodyBuilder and BodyLanguage model FoxedUp or BRILLIANT.MOD
:root
   order TX TY TZ RX RY RZ
   axis XYZ
   position 0 0 0  
   orientation 0 0 0 
:bonedata
  begin
     id 1 
     name lhipjoint
     direction 0.677091 -0.635792 0.370561 
     length 2.74323 
     axis 0 0 0  XYZ
  end
  begin
     id 2 
     name lfemur
     direction 0.34202 -0.939693 0  
     length 7.44995  
     axis 0 0 20  XYZ
    dof rx ry rz
    limits (-160.0 20.0)
           (-70.0 70.0)
           (-60.0 70.0)
  end
  begin
     id 3 
     name ltibia
     direction 0.34202 -0.939693 0   
     length 7.34467   
     axis 0 0 20   XYZ
    dof rx
    limits (-10.0 170.0)
  end
  begin
     id 4 
     name lfoot
     direction 0.101953 -0.280114 0.954537   
     length 1.72105   
     axis -90 7.62852e-016 20   XYZ
    dof rx rz
    limits (-45.0 90.0)
           (-70.0 20.0)
  end
  begin
     id 5 
     name ltoes
     direction 1.53537e-011 -4.21915e-011 1   
     length 0.865872   
     axis -90 7.62852e-016 20   XYZ
    dof rx
    limits (-90.0 20.0)
  end
  begin
     id 6 
     name rhipjoint
     direction -0.695735 -0.620586 0.361699   
     length 2.81045  
     axis 0 0 0  XYZ 
  end
  begin
     id 7 
     name rfemur
     direction -0.34202 -0.939693 0   
     length 7.29387   
     axis 0 0 -20   XYZ
    dof rx ry rz
    limits (-160.0 20.0)
           (-70.0 70.0)
           (-70.0 60.0)
  end
  begin
     id 8 
     name rtibia
     direction -0.34202 -0.939693 0   
     length 7.44935   
     axis 0 0 -20   XYZ
    dof rx
    limits (-10.0 170.0)
 end
 begin
     id 9 
     name rfoot
     direction -0.104163 -0.286184 0.952496   
     length 1.77731  
     axis -90 -7.62852e-016 -20   XYZ
    dof rx rz
    limits (-45.0 90.0)
           (-20.0 70.0)
  end
  begin
     id 10 
     name rtoes
     direction -1.5355e-011 -4.21888e-011 1   
     length 0.892424   
     axis -90 -7.62852e-016 -20   XYZ
    dof rx
    limits (-90.0 20.0)
  end
  begin
     id 11 
     name lowerback
     direction 0.0100202 0.997226 -0.0737589   
     length 2.16892   
     axis 0 0 0   XYZ
    dof rx ry rz
    limits (-20.0 45.0)
           (-30.0 30.0)
           (-30.0 30.0)
  end
  begin
     id 12 
     name upperback
     direction 0.00432398 0.999988 -0.00215019   
     length 2.17326   
     axis 0 0 0   XYZ
    dof rx ry rz
    limits (-20.0 45.0)
           (-30.0 30.0)
           (-30.0 30.0)
  end
  begin
     id 13 
     name thorax
     direction -0.00195047 0.999485 0.0320434   
     length 2.18139   
     axis 0 0 0   XYZ
    dof rx ry rz
    limits (-20.0 45.0)
           (-30.0 30.0)
           (-30.0 30.0)
  end
  begin
     id 14 
     name lowerneck
     direction 0.00782762 0.986241 0.165128   
     length 1.88415   
     axis 0 0 0   XYZ
    dof rx ry rz
    limits (-20.0 45.0)
           (-30.0 30.0)
           (-30.0 30.0)
  end
  begin
     id 15 
     name upperneck
     direction 0.00988667 0.981098 -0.193258   
     length 1.9242   
     axis 0 0 0   XYZ
    dof rx ry rz
    limits (-20.0 45.0)
           (-30.0 30.0)
           (-30.0 30.0)
  end
  begin
     id 16
     name head
     direction 0.00252199 0.996513 -0.0833958  
     length 1.93887  
     axis 0 0 0   XYZ
    dof rx ry rz
    limits (-20.0 45.0)
           (-30.0 30.0)
           (-30.0 30.0)
  end
  begin
     id 17 
     name lclavicle
     direction 0.929492 0.368193 -0.0218667  
     length 3.5955  
     axis 0 0 0   XYZ
    dof ry rz
    limits (-20.0 10.0)
           (0.0 20.0)
  end
  begin
     id 18 
     name lhumerus
     direction 1 -4.48972e-011 1.41911e-027   
     length 5.2795   
     axis 180 -30 -90   XYZ
    dof rx ry rz
    limits (-60.0 90.0)
           (-90.0 90.0)
           (-90.0 90.0)
  end
  begin
     id 19
     name lradius
     direction 1 -4.48963e-011 7.05772e-027   
     length 3.53504   
     axis 180 -30 -90   XYZ
    dof rx
    limits (-10.0 170.0)
  end
  begin
     id 20
     name lwrist
     direction 1 -4.48957e-011 9.54866e-027   
     length 1.76752   
     axis -7.69462e-015 90 90   XYZ
    dof ry
    limits (-180.0 0.0)
 end
  begin
     id 21 
     name lhand
     direction 1 -4.48979e-011 1.90973e-026   
     length 0.667948   
     axis -1.21857e-014 90 90   XYZ
    dof rx rz
    limits (-90.0 90.0)
           (-45.0 45.0)
  end
  begin
     id 22 
     name lfingers
     direction 1 -4.48987e-011 3.81946e-026   
     length 0.538517   
     axis -2.43714e-014 90 90   XYZ
    dof rx
    limits (0.0 90.0)
  end
  begin
     id 23
     name lthumb
     direction 0.707107 -6.34962e-011 0.707107   
     length 0.773206   
     axis -90 45 2.85299e-015   XYZ
    dof rx rz
    limits (-45.0 45.0)
           (-45.0 45.0)
  end
  begin
     id 24 
     name rclavicle
     direction -0.898763 0.414256 -0.143584   
     length 3.5176  
     axis 0 0 0   XYZ 
    dof ry rz
    limits (-10.0 20.0)
           (-20.0 0.0)
  end
  begin
     id 25 
     name rhumerus
     direction -1 -4.48971e-011 1.129e-027  
     length 5.25035   
     axis 180 30 90   XYZ
    dof rx ry rz
    limits (-90.0 60.0)
           (-90.0 90.0)
           (-90.0 90.0)
  end
  begin
     id 26 
     name rradius
     direction -1 -4.48955e-011 6.34664e-027   
     length 3.58884   
     axis 180 30 90   XYZ
    dof rx
    limits (-10.0 170.0)
  end
  begin
     id 27 
     name rwrist
     direction -1 -4.48966e-011 9.54866e-027   
     length 1.79442   
     axis -7.69462e-015 -90 -90   XYZ
    dof ry
    limits (-180.0 0.0)
  end
  begin
     id 28
     name rhand
     direction -1 -4.48973e-011 1.90973e-026   
     length 0.779235   
     axis -1.21857e-014 -90 -90   XYZ
    dof rx rz
    limits (-90.0 90.0)
           (-45.0 45.0)
  end
  begin
     id 29
     name rfingers
     direction -1 -4.48984e-011 3.81946e-026   
     length 0.62824   
     axis -2.43714e-014 -90 -90   XYZ
    dof rx
    limits (0.0 90.0)
  end
  begin
     id 30
     name rthumb
     direction -0.707107 -6.34968e-011 0.707107   
     length 0.90203   
     axis -90 -45 -2.85299e-015   XYZ
    dof rx rz
    limits (-45.0 45.0)
           (-45.0 45.0)
  end
:hierarchy
  begin
    root lhipjoint rhipjoint lowerback
    lhipjoint lfemur
    lfemur ltibia
    ltibia lfoot
    lfoot ltoes
    rhipjoint rfemur
    rfemur rtibia
    rtibia rfoot
    rfoot rtoes
    lowerback upperback
    upperback thorax
    thorax lowerneck lclavicle rclavicle
    lowerneck upperneck
    upperneck head
    lclavicle lhumerus
    lhumerus lradius
    lradius lwrist
    lwrist lhand lthumb
    lhand lfingers
    rclavicle rhumerus
    rhumerus rradius
    rradius rwrist
    rwrist rhand rthumb
    rhand rfingers
  end

#!OML:ASF I:\Random Stuff\random\construction\7_22_03\Session 2\subj1.ASF
:FULLY-SPECIFIED
:DEGREES
381
root -9.12609 17.7632 -5.0247 -469.949 83.847 -481.503
lowerback 7.91613 2.10667 -4.84373
upperback 3.94083 2.85458 -8.6139
thorax -0.097516 1.64848 -6.5233
lowerneck -21.1261 0.716681 -1.2126
upperneck 33.8534 1.15562 3.82858
head 15.4057 1.17588 2.1336
rclavicle -3.18055e-014 -1.90833e-014
rhumerus 48.4095 66.4531 -16.5009
rradius 75.5636
rwrist 30.4058
rhand -8.78193 18.9194
rfingers 7.12502
rthumb 17.1563 -10.3432
lclavicle -3.18055e-014 -1.90833e-014
lhumerus 1.24303 -45.8935 86.7493
lradius 43.4396
lwrist -15.4615
lhand -27.4671 62.578
lfingers 7.12502
lthumb -0.871248 -92.556
rfemur -8.69083 3.34018 18.4017
rtibia -1.78906e-014
rfoot 0.279251 -9.2439
rtoes -22.9664
lfemur -23.6041 -5.79 -7.73239
ltibia 26.5085
lfoot -12.0815 10.5631
ltoes -32.12
382
root -9.1274 17.7621 -5.01917 -471.878 83.6324 -483.498
lowerback 7.93468 2.13026 -4.96025
upperback 3.9567 2.8881 -8.70351
thorax -0.0876127 1.66931 -6.55778
lowerneck -21.107 0.640224 -1.26507
upperneck 33.917 1.01316 3.99052
head 15.4358 1.13619 2.18767
rclavicle -3.33958e-014 1.90833e-014
rhumerus 48.5858 66.5629 -16.0097
rradius 75.6289
rwrist 30.3229
rhand -8.68464 18.5377
rfingers 7.12502
rthumb 17.25 -10.7167
lclavicle -3.33958e-014 1.90833e-014
lhumerus 2.02685 -46.7833 86.0265
lradius 42.9532
lwrist -15.5454
lhand -26.8125 63.0781
lfingers 7.12502
lthumb -0.23902 -93.0578
rfemur -8.70095 3.06358 18.5396
rtibia -1.19271e-014
rfoot 0.237972 -9.25708
rtoes -22.8171
lfemur -23.8108 -6.00643 -7.59003
ltibia 26.5991
lfoot -12.0105 10.5854
ltoes -32.6589
383
root -9.12741 17.7632 -5.01166 -473.689 83.3013 -485.345
lowerback 7.9787 2.12286 -5.01189
upperback 3.97923 2.87879 -8.73831
thorax -0.0888883 1.66712 -6.5674
lowerneck -21.0703 0.586866 -1.33216
upperneck 33.9695 0.930611 4.09747
head 15.4546 1.11108 2.23142
rclavicle 1.59028e-014 -3.18055e-015
rhumerus 48.9311 66.6968 -15.388
rradius 75.687
rwrist 30.0417
rhand -8.2692 18.1247
rfingers 7.12502
rthumb 17.6498 -11.0942
lclavicle 1.59028e-014 -3.18055e-015
lhumerus 2.88203 -47.7022 85.2425
lradius 42.3331
lwrist -15.4914
lhand -24.108 61.128
lfingers 7.12502
lthumb 2.37309 -91.0946
rfemur -8.66723 2.74832 18.7921
rtibia -1.70955e-014
rfoot 0.146855 -9.27926
rtoes -22.5382
lfemur -23.9935 -6.17868 -7.34759
ltibia 26.6945
lfoot -12.0099 10.4934
ltoes -33.0162
384
root -9.12753 17.7667 -5.00542 -475.896 82.9297 -487.529
lowerback 8.12556 2.11543 -4.98493
upperback 4.02631 2.86967 -8.79573
thorax -0.116337 1.66822 -6.65136
lowerneck -21.0535 0.520814 -1.40059
upperneck 33.9912 0.807304 4.25731
head 15.4651 1.07622 2.28944
rclavicle -1.43125e-014 5.725e-014
rhumerus 49.1644 66.846 -14.8824
rradius 75.7112
rwrist 29.5467
rhand -7.83345 17.5275
rfingers 7.12502
rthumb 18.0691 -11.6532
lclavicle -1.43125e-014 5.725e-014
lhumerus 3.79389 -48.7825 84.3348
lradius 41.6893
lwrist -15.3269
lhand -24.5684 60.5396
lfingers 7.12502
lthumb 1.92838 -90.5106
rfemur -8.54266 2.36019 19.0395
rtibia -7.15625e-015
rfoot -0.00797918 -9.30547
rtoes -21.9595
lfemur -24.1367 -6.49968 -7.08813
ltibia 26.8078
lfoot -12.0959 10.3614
ltoes -32.4656
385
root -9.12849 17.7669 -4.99763 -478.218 82.6052 -489.803
lowerback 8.30147 2.12465 -5.049
upperback 4.07861 2.87662 -8.86835
thorax -0.155828 1.67757 -6.70319
lowerneck -21.0621 0.400537 -1.43222
upperneck 34.0245 0.598821 4.38478
head 15.4919 1.00577 2.31224
rclavicle 1.27222e-014 -3.18055e-014
rhumerus 49.2453 66.993 -14.4988
rradius 75.733
rwrist 29.1807
rhand -7.6668 16.9277
rfingers 7.12502
rthumb 18.2294 -12.2381
lclavicle 1.27222e-014 -3.18055e-014
lhumerus 4.65291 -49.872 83.4325
lradius 41.1452
lwrist -15.0155
lhand -24.4823 60.0639
lfingers 7.12502
lthumb 2.01153 -90.0342
rfemur -8.37243 1.96206 19.2138
rtibia 1.98785e-014
rfoot -0.172855 -9.33628
rtoes -21.2051
lfemur -24.2881 -6.80142 -6.91257
ltibia 26.9539
lfoot -12.1251 10.2319
ltoes -32.3775
386
root -9.13341 17.763 -4.9887 -479.994 82.234 -491.571
lowerback 8.4762 2.11374 -5.12114
upperback 4.10274 2.84845 -8.9004
thorax -0.23007 1.66653 -6.70413
lowerneck -21.0387 0.287891 -1.47252
upperneck 34.0369 0.411367 4.49109
head 15.5007 0.939272 2.32993
rclavicle 9.54166e-015 -5.40694e-014
rhumerus 49.4282 67.1348 -14.0417
rradius 75.766
rwrist 29.2125
rhand -7.74931 16.5102
rfingers 7.12502
rthumb 18.15 -12.663
lclavicle 9.54166e-015 -5.40694e-014
lhumerus 5.43592 -50.6648 82.6742
lradius 40.6081
lwrist -14.7589
lhand -24.2344 59.5423
lfingers 7.12502
lthumb 2.25096 89.5101
rfemur -8.28478 1.5845 19.4522
rtibia 1.59028e-015
rfoot -0.2388 -9.33557
rtoes -20.9386
lfemur -24.5042 -6.981 -6.69576
ltibia 27.0874
lfoot -12.053 10.1246
ltoes -33.1595
387
root -9.13817 17.76 -4.98497 -481.258 81.8268 -492.811
lowerback 8.66954 2.07338 -5.11423
upperback 4.16681 2.78626 -8.88216
thorax -0.275052 1.63774 -6.69191
lowerneck -21.0941 0.235974 -1.65034
upperneck 33.9885 0.340608 4.6516
head 15.4926 0.908872 2.41509
rclavicle 1.11319e-014 -6.67916e-014
rhumerus 50.1084 67.256 -13.0694
rradius 75.8329
rwrist 29.5748
rhand -8.04204 15.7529
rfingers 7.12502
rthumb 17.8684 -13.4462
lclavicle 1.11319e-014 -6.67916e-014
lhumerus 6.35307 -51.2185 81.9079
lradius 40.0716
lwrist -14.479
lhand -23.9557 58.8676
lfingers 7.12502
lthumb 2.52013 88.8325
rfemur -8.21498 1.23345 19.7315
rtibia -5.56597e-015
rfoot -0.256007 -9.30861
rtoes -20.9581
lfemur -24.6967 -7.10821 -6.44481
ltibia 27.2166
lfoot -11.9984 9.9694
ltoes -33.3998
388
root -9.13774 17.7575 -4.98184 -482.626 81.4849 -494.132
lowerback 8.83474 2.0464 -5.12537
upperback 4.25937 2.7528 -8.92281
thorax -0.26904 1.62671 -6.73362
lowerneck -21.2084 0.189869 -1.77149
upperneck 33.9677 0.248557 4.83582
head 15.5131 0.881201 2.49882
rclavicle 2.70347e-014 -5.08889e-014
rhumerus 50.4107 67.2946 -12.5417
rradius 75.8521
rwrist 29.6409
rhand -8.04988 15.4184
rfingers 7.12502
rthumb 17.8608 -13.7814
lclavicle 2.70347e-014 -5.08889e-014
lhumerus 7.40724 -52.0072 80.9052
lradius 39.7265
lwrist -13.9985
lhand -22.982 58.6236
lfingers 7.12502
lthumb 3.46052 88.5753
rfemur -8.09017 0.892099 19.9276
rtibia -7.15625e-015
rfoot -0.331147 -9.30803
rtoes -20.7779
lfemur -24.8646 -7.11015 -6.30084
ltibia 27.4002
lfoot -12.0165 9.63278
ltoes -33.4815
389
root -9.13894 17.7585 -4.97214 -483.821 81.0842 -495.411
lowerback 8.8848 2.0392 -5.07586
upperback 4.26831 2.75213 -9.0136
thorax -0.279487 1.63268 -6.86347
lowerneck -21.1691 0.112499 -1.70225
upperneck 33.9404 0.0651879 4.9559
head 15.501 0.832887 2.50211
rclavicle -6.99722e-014 7.95139e-014
rhumerus 49.6358 67.3057 -13.1892
rradius 75.8884
rwrist 29.0163
rhand -7.19923 15.9204
rfingers 7.12502
rthumb 18.6792 -13.2027
lclavicle -6.99722e-014 7.95139e-014
lhumerus 8.42274 -53.093 79.8301
lradius 39.4897
lwrist -13.3957
lhand -21.6253 58.9243
lfingers 7.12502
lthumb 4.77062 88.8505
rfemur -8.10748 0.51878 20.1923
rtibia -1.35174e-014
rfoot -0.423011 -9.32271
rtoes -20.5378
lfemur -25.2155 -7.04808 -6.07253
ltibia 27.6239
lfoot -12.0607 9.17497
ltoes -33.4536
390
root -9.14274 17.7606 -4.96172 -484.495 80.5429 -496.199
lowerback 8.94232 2.0156 -4.91615
upperback 4.22237 2.72135 -9.02422
thorax -0.355205 1.61922 -6.96783
lowerneck -21.0202 0.0378183 -1.67495
upperneck 33.885 -0.0896177 5.06125
head 15.4484 0.788628 2.50885
rclavicle -2.54444e-014 -3.49861e-014
rhumerus 49.0033 67.4766 -13.6461
rradius 75.9418
rwrist 28.864
rhand -6.77518 16.158
rfingers 7.12502
rthumb 19.087 -12.9255
lclavicle -2.54444e-014 -3.49861e-014
lhumerus 9.35938 -54.1196 78.9227
lradius 39.1257
lwrist -12.7538
lhand -20.8539 59.1335
lfingers 7.12502
lthumb 5.51544 89.0417
rfemur -8.17294 0.12197 20.6153
rtibia 7.15625e-015
rfoot -0.498784 -9.34196
rtoes -20.2428
lfemur -25.6196 -7.20458 -5.63753
ltibia 27.8306
lfoot -12.0786 8.97067
ltoes -33.4648
391
root -9.14639 17.7592 -4.95632 -485.288 80.0375 -497.03
lowerback 9.12775 2.00767 -4.73095
upperback 4.20227 2.70632 -9.05072
thorax -0.470829 1.6158 -7.11234
lowerneck -20.9564 -0.0734721 -1.69615
upperneck 33.8336 -0.292062 5.18914
head 15.4203 0.720656 2.52631
rclavicle 6.36111e-015 -9.54166e-015
rhumerus 48.5873 67.6951 -13.8195
rradius 75.991
rwrist 28.9307
rhand -6.70786 16.096
rfingers 7.12502
rthumb 19.1518 -12.9811
lclavicle 6.36111e-015 -9.54166e-015
lhumerus 10.335 -55.204 78.0228
lradius 38.6857
lwrist -11.9412
lhand -20.7185 59.0675
lfingers 7.12502
lthumb 5.64613 88.9722
rfemur -8.15663 -0.276999 20.9688
rtibia 1.98785e-014
rfoot -0.548835 -9.35118
rtoes -20.0648
lfemur -25.9473 -7.39577 -5.28965
ltibia 28.0225
lfoot -12.0443 8.88918
ltoes -34.0978
392
root -9.14999 17.7558 -4.95427 -486.644 79.6496 -498.433
lowerback 9.317 2.02153 -4.62763
upperback 4.23231 2.72785 -9.1377
thorax -0.531713 1.63451 -7.27903
lowerneck -20.9943 -0.214862 -1.76176
upperneck 33.7901 -0.53269 5.33657
head 15.4224 0.633282 2.55461
rclavicle -5.725e-014 1.27222e-014
rhumerus 48.2267 67.9054 -13.8164
rradius 76.093
rwrist 28.9899
rhand -6.79647 15.3909
rfingers 7.12502
rthumb 19.0666 -13.6945
lclavicle -5.725e-014 1.27222e-014
lhumerus 11.3528 -56.227 77.1792
lradius 38.2214
lwrist -11.2035
lhand -20.584 58.9444
lfingers 7.12502
lthumb 5.77597 88.8456
rfemur -8.14334 -0.705535 21.1295
rtibia -1.59028e-014
rfoot -0.59325 -9.32373
rtoes -20.0776
lfemur -26.274 -7.33906 -5.20127
ltibia 28.1924
lfoot -11.9653 8.55072
ltoes -34.8206
